<?xml version="1.0" standalone="no"?>
<!DOCTYPE svg PUBLIC "-//W3C//DTD SVG 20010904//EN"
 "http://www.w3.org/TR/2001/REC-SVG-20010904/DTD/svg10.dtd">
<svg version="1.0" xmlns="http://www.w3.org/2000/svg"
 width="133.000000pt" height="185.000000pt" viewBox="0 0 133.000000 185.000000"
 preserveAspectRatio="xMidYMid meet">

<g transform="translate(0.000000,185.000000) scale(0.100000,-0.100000)"
fill="#000000" stroke="none">
<path d="M120 1686 c-15 -19 -16 -17 55 -139 l50 -87 245 0 c218 0 250 -3 286
-19 50 -23 74 -55 74 -99 0 -62 -28 -92 -120 -126 -34 -13 89 6 134 21 63 20
140 94 155 149 6 22 11 82 11 135 0 112 1 111 -111 151 -61 21 -81 23 -415 26
-312 3 -352 2 -364 -12z"/>
<path d="M222 1263 c-11 -48 -69 -369 -76 -410 -2 -13 2 -19 9 -17 7 3 16 -15
23 -48 35 -156 118 -242 252 -263 25 -4 62 -16 82 -26 29 -15 59 -19 131 -19
51 0 96 3 100 6 7 8 -3 34 -13 34 -5 0 -30 9 -56 20 l-47 20 47 32 c26 17 44
34 39 37 -5 3 -8 20 -8 38 2 44 -28 53 -177 53 -109 0 -119 2 -114 18 3 9 26
134 51 277 25 143 49 268 51 278 5 16 -6 17 -139 17 l-145 0 -10 -47z"/>
<path d="M611 1103 c-11 -60 -21 -111 -21 -114 0 -4 44 -9 98 -11 111 -5 164
-24 187 -69 28 -52 11 -133 -32 -158 -10 -6 -13 -11 -7 -11 18 0 90 56 119 94
34 45 55 114 55 185 0 65 9 59 -119 67 -76 5 -86 8 -118 37 -32 30 -120 87
-134 87 -3 0 -16 -48 -28 -107z"/>
<path d="M100 269 l0 -90 43 3 c40 3 42 5 45 36 2 18 -2 39 -8 47 -8 9 -8 15
0 20 14 8 13 48 -2 63 -7 7 -27 12 -45 12 l-33 0 0 -91z m58 44 c-4 -39 -28
-42 -28 -4 0 21 5 31 16 31 11 0 14 -8 12 -27z m2 -83 c0 -20 -5 -30 -15 -30
-10 0 -15 10 -15 30 0 20 5 30 15 30 10 0 15 -10 15 -30z"/>
<path d="M210 275 c0 -81 1 -86 25 -97 43 -19 55 2 55 98 0 106 -18 111 -22 7
-2 -61 -6 -78 -18 -78 -12 0 -16 17 -18 78 -4 105 -22 99 -22 -8z"/>
<path d="M320 270 c0 -53 4 -90 10 -90 6 0 10 37 10 90 0 53 -4 90 -10 90 -6
0 -10 -37 -10 -90z"/>
<path d="M370 270 l0 -90 40 0 c22 0 40 5 40 10 0 6 -13 10 -30 10 l-30 0 0
80 c0 47 -4 80 -10 80 -6 0 -10 -37 -10 -90z"/>
<path d="M470 270 l0 -90 35 0 c43 0 55 20 55 90 0 70 -12 90 -55 90 l-35 0 0
-90z m58 -3 c3 -62 1 -67 -18 -67 -18 0 -20 6 -20 71 0 62 2 70 18 67 14 -3
18 -16 20 -71z"/>
<path d="M647 353 c-4 -3 -7 -41 -7 -84 0 -67 3 -80 19 -89 11 -5 24 -10 30
-10 20 0 41 33 41 66 0 30 -3 34 -25 34 -14 0 -25 -4 -25 -10 0 -5 5 -10 10
-10 6 0 10 -12 10 -26 0 -19 -5 -25 -17 -22 -14 3 -19 15 -21 62 -3 65 11 93
32 64 7 -10 18 -18 25 -18 14 0 14 6 1 31 -10 19 -59 27 -73 12z"/>
<path d="M750 271 c0 -74 3 -91 15 -91 11 0 15 11 15 41 0 46 15 44 28 -4 5
-18 16 -33 25 -35 15 -3 15 0 3 36 -9 26 -11 43 -4 50 5 5 8 27 6 48 -3 38 -4
39 -45 42 l-43 3 0 -90z m65 39 c0 -16 -6 -26 -17 -28 -14 -3 -18 3 -18 28 0
25 4 31 18 28 11 -2 17 -12 17 -28z"/>
<path d="M877 353 c-4 -3 -7 -42 -7 -85 0 -73 2 -79 24 -89 17 -8 29 -8 45 0
18 10 21 21 21 81 0 89 -5 100 -44 100 -18 0 -36 -3 -39 -7z m57 -29 c9 -23 7
-97 -3 -113 -5 -8 -16 -11 -25 -8 -12 5 -16 20 -16 56 0 58 7 81 25 81 7 0 16
-7 19 -16z"/>
<path d="M980 281 c0 -59 4 -84 16 -95 20 -20 38 -20 58 0 23 22 23 174 1 174
-12 0 -15 -16 -15 -80 0 -64 -3 -80 -15 -80 -12 0 -15 16 -15 80 0 64 -3 80
-15 80 -12 0 -15 -15 -15 -79z"/>
<path d="M1090 270 c0 -73 3 -90 15 -90 10 0 15 11 15 35 0 27 4 35 18 35 26
0 42 20 42 51 0 48 -9 59 -51 59 l-39 0 0 -90z m62 53 c6 -28 -3 -53 -18 -53
-9 0 -14 12 -14 35 0 37 25 51 32 18z"/>
</g>
</svg>
